PathFileType	3	(X/Y/Z)	D:\Vicon Database\Healthy Subjects\S0040\Jan. 30, 2020\Force Plate Walk 1.trc
DataRate	CameraRate	NumFrames	NumMarkers	Units	OrigDataRate	OrigDataStartFrame	OrigNumFrames
100.0	100.0	4	53	mm	100.0	423	322	
Frame#	Time	right_foot_cluster2			right_foot_cluster3			sternum_cluster1			sternum_cluster2			sternum_cluster3			left_asis			right_asis			left_psis			right_psis			sacrum_cluster1			sacrum_cluster2			sacrum_cluster3			left_lat_femoral_epicondyle			left_anterior_thigh15			left_anterior_thigh25			left_anterior_thigh50			left_lateral_thigh25			left_lateral_thigh50			left_thigh_cluster1			left_thigh_cluster2			left_thigh_cluster3			left_fibular_head			left_tibial_tuberosity			left_anterior_shank30			left_lateral_malleolus			left_shank_cluster1			left_shank_cluster2			left_shank_cluster3			left_heel			left_metatarsal2			left_foot_cluster1			left_foot_cluster2			left_foot_cluster3			right_lat_femoral_epicondyle			right_anterior_thigh15			right_anterior_thigh25			right_anterior_thigh50			right_lateral_thigh25			right_lateral_thigh50			right_thigh_cluster1			right_thigh_cluster2			right_thigh_cluster3			right_fibular_head			right_tibial_tuberosity			right_lateral_distal_shank			right_anterior_shank30			right_lateral_malleolus			right_shank_cluster1			right_shank_cluster2			right_shank_cluster3			right_heel			right_metatarsal2			right_foot_cluster1			
		X1	Y1	Z1	X2	Y2	Z2	X3	Y3	Z3	X4	Y4	Z4	X5	Y5	Z5	X6	Y6	Z6	X7	Y7	Z7	X8	Y8	Z8	X9	Y9	Z9	X10	Y10	Z10	X11	Y11	Z11	X12	Y12	Z12	X13	Y13	Z13	X14	Y14	Z14	X15	Y15	Z15	X16	Y16	Z16	X17	Y17	Z17	X18	Y18	Z18	X19	Y19	Z19	X20	Y20	Z20	X21	Y21	Z21	X22	Y22	Z22	X23	Y23	Z23	X24	Y24	Z24	X25	Y25	Z25	X26	Y26	Z26	X27	Y27	Z27	X28	Y28	Z28	X29	Y29	Z29	X30	Y30	Z30	X31	Y31	Z31	X32	Y32	Z32	X33	Y33	Z33	X34	Y34	Z34	X35	Y35	Z35	X36	Y36	Z36	X37	Y37	Z37	X38	Y38	Z38	X39	Y39	Z39	X40	Y40	Z40	X41	Y41	Z41	X42	Y42	Z42	X43	Y43	Z43	X44	Y44	Z44	X45	Y45	Z45	X46	Y46	Z46	X47	Y47	Z47	X48	Y48	Z48	X49	Y49	Z49	X50	Y50	Z50	X51	Y51	Z51	X52	Y52	Z52	X53	Y53	Z53	
423	4.22	2112.0051	103.33563	-159.00708	2112.7212	108.02739	-196.26472	2134.6797	1455.0792	-108.71563	2122.8809	1427.5419	-99.577309	2123.2078	1429.9353	-137.73483	2154.7617	1071.6277	7.8174787	2150.9421	1084.6473	-240.73837	2319.1179	1088.2372	-40.625229	2320.9548	1097.0093	-158.80254	2327.0247	1149.8037	-103.46938	2333.8538	1125.3646	-116.53114	2336.6919	1118.2622	-77.78521	2132.3755	548.74561	36.878254	2042.6824	630.75592	-8.2330332	2047.5641	721.37067	1.6705416	2085.9934	857.13623	10.954344	2159.8271	690.75867	50.499783	2185.1248	836.78162	73.410042	2179.8113	791.44098	78.847282	2176.7085	761.91968	76.284561	2142.7063	777.49237	83.705238	2147.6477	480.86853	48.823494	2107.3264	442.81271	-6.1410804	2300.5273	275.31534	-12.980601	2416.9612	223.81778	20.717089	2146.7566	400.10147	-34.899719	2164.4167	377.39276	-25.403017	2174.75	386.82065	-61.334667	2491.2817	256.05469	-19.340691	2343.4275	94.428902	-15.715349	2346.0723	170.70474	-4.9343448	2344.6362	140.59172	3.6344914	2334.7661	143.54208	-33.65955	2168.5364	536.08185	-247.17543	2092.8701	630.95941	-188.82558	2083.9788	711.78607	-191.61549	2092.9863	840.37402	-205.10812	2179.1001	695.46857	-274.53754	2191.9922	842.50031	-303.0972	2195.3115	789.15002	-309.48526	2181.605	763.93372	-304.67081	2220.4136	759.35742	-300.89716	2178.8911	467.67773	-249.38806	2126.7046	458.8905	-200.31776	2210.9946	200.46564	-226.57822	2165.9954	212.45367	-178.45378	2223.1587	99.633743	-209.27281	2144.832	395.50677	-144.38954	2153.4902	367.99609	-137.1638	2127.8357	363.88284	-163.84984	2299.0337	65.738861	-174.11871	2078.6252	71.047302	-171.51318	2136.8538	116.91109	-167.27385
424	4.23	2111.8374	103.17149	-158.92252	2112.4724	107.93983	-196.17632	2120.5032	1457.0425	-108.3931	2108.9675	1429.2875	-99.307243	2109.0623	1431.7251	-137.48064	2141.8711	1074.1239	7.2794271	2137.4873	1085.7312	-241.0554	2305.9192	1090.8896	-41.009529	2306.8042	1098.7322	-158.91135	2313.6328	1152.2875	-104.19492	2320.3179	1127.6973	-117.25721	2323.4734	1120.9391	-78.331108	2108.8142	552.59229	36.686436	2021.4691	637.38214	-8.0133562	2028.7153	727.8761	1.7091905	2070.5696	862.50977	10.726005	2140.0452	694.84723	50.730965	2168.8972	840.4212	73.805038	2162.4387	794.89844	79.033325	2158.5745	765.37323	76.584656	2125.0037	781.6662	83.8433	2123.439	484.31433	48.145565	2080.8198	447.6752	-6.616909	2267.4299	272.65256	-14.312631	2382.2295	217.05089	18.983284	2119.25	403.28549	-35.245102	2134.8984	380.31882	-25.705631	2145.6465	389.03308	-61.80101	2458.5193	243.35086	-21.968433	2299.6316	93.066589	-15.310443	2307.9707	168.92671	-5.6184587	2304.4321	139.12042	3.280761	2294.7739	142.14925	-34.172012	2165.2559	536.40454	-246.79362	2087.7124	629.60583	-188.6192	2076.6499	710.30579	-191.03174	2082.8452	839.25403	-204.86194	2171.9485	695.98486	-273.88242	2181.5596	843.19122	-302.90512	2186.0581	789.98621	-309.13174	2172.8914	764.41504	-304.12732	2212.0742	760.75867	-300.79584	2176.5476	468.16882	-248.99358	2124.083	458.84058	-200.46886	2210.1882	200.92744	-226.26714	2164.7043	212.51558	-178.5383	2222.8562	100.00423	-209.05702	2142.9126	395.47186	-144.1702	2150.9541	368.12137	-136.85455	2125.2241	364.03372	-163.9064	2298.8472	65.981735	-173.9218	2078.6362	70.634827	-171.4873	2136.2104	116.9361	-166.88963
425	4.24	2111.6865	103.02354	-158.74776	2112.1553	107.89795	-196.04857	2106.4326	1458.514	-108.16134	2094.9966	1430.8704	-98.974388	2094.9336	1433.2729	-137.11218	2128.9658	1076.3542	6.6911626	2124.1846	1086.5605	-241.35262	2292.7385	1093.3558	-41.479263	2293.1682	1100.6315	-159.26891	2300.2786	1154.48	-104.96584	2307.0518	1130.1094	-117.72686	2310.2134	1123.2367	-78.990204	2086.2019	556.70032	36.891499	2000.7982	643.8501	-7.7556038	2010.353	734.24689	2.0218081	2055.3979	867.64459	10.71488	2120.8691	698.84991	51.185131	2153.1953	843.87354	74.343681	2145.4224	798.35388	79.675079	2141.0999	768.8399	76.920731	2107.9302	785.70331	83.799622	2099.8115	487.98721	47.643944	2054.0293	452.82004	-6.6791124	2234.1938	269.79132	-14.741912	2346.7244	209.43736	17.514477	2091.7786	406.06091	-34.743061	2105.1987	382.82034	-25.413757	2116.8374	390.93716	-61.695183	2424.2542	229.39449	-24.756067	2255.0437	91.602654	-14.431759	2269.0464	166.58153	-5.7178221	2262.6824	138.04457	3.6064007	2253.0242	141.21927	-33.576515	2161.9946	536.78278	-246.31131	2082.6404	628.32141	-188.43265	2069.7847	708.8371	-190.78639	2072.7729	838.07819	-204.60081	2165.0671	696.62018	-273.39432	2171.0183	843.76068	-303.01675	2176.8308	790.4873	-308.7626	2164.1646	764.82886	-303.87051	2202.8018	761.6275	-300.43716	2174.2686	468.60544	-248.66441	2121.5166	458.91721	-200.38344	2209.4583	201.55382	-226.00371	2163.7751	212.88882	-178.53862	2222.5696	100.42315	-208.77087	2140.2864	395.57516	-144.07591	2148.6421	368.30307	-136.60655	2123.9097	363.68787	-163.63885	2298.6743	66.327164	-173.75658	2078.6138	70.355049	-171.49004	2135.8513	116.94056	-166.68901
426	4.25	2111.3389	102.98454	-158.57947	2111.8391	107.8466	-195.86026	2092.4822	1459.772	-108.01739	2081.0364	1432.1414	-98.756859	2080.9026	1434.6248	-136.94543	2116.0369	1078.2806	6.1664124	2110.825	1087.0543	-241.65099	2279.4912	1095.3197	-41.873966	2279.7925	1102.4668	-159.68692	2286.9355	1156.5693	-105.55699	2293.6228	1131.8301	-118.45622	2297.1106	1125.3662	-79.527328	2064.4592	560.61829	36.845047	1980.4219	650.24005	-7.6716552	1992.2694	740.34729	2.5257421	2040.5131	872.52869	10.714313	2102.0164	702.65607	51.626278	2137.5918	847.07361	74.997543	2128.0298	801.82263	80.475647	2123.9141	772.16644	77.626358	2091.8882	788.01849	82.772881	2077.2427	491.57394	46.909271	2028.4216	457.8432	-6.4413452	2199.9092	266.62097	-14.635941	2310.0813	201.4453	16.370955	2063.9619	409.06567	-34.203415	2076.1748	385.17654	-24.859911	2087.0417	392.73981	-61.293941	2388.6201	215.23073	-27.090096	2209.9878	90.054794	-13.36696	2229.6694	163.73795	-5.7424378	2221.5378	135.54118	3.4857509	2211.5183	139.38422	-33.104679	2158.488	537.20447	-245.7874	2077.4041	627.06622	-188.16054	2062.5754	707.34229	-190.52983	2062.7217	836.81671	-204.5195	2159.0032	697.07104	-274.04474	2160.5293	844.25317	-302.4277	2167.7581	791.34125	-308.64584	2155.7131	765.30597	-303.63791	2194.3555	762.80975	-300.29535	2171.8413	469.1449	-248.21553	2119.3264	458.70831	-200.20026	2208.5437	202.18436	-225.79457	2163.1985	213.13327	-178.36534	2222.2979	100.84738	-208.49496	2137.9272	395.76886	-143.87943	2146.5605	368.44815	-136.40973	2121.7515	363.83929	-163.69266	2298.5398	66.582672	-173.68488	2078.2544	70.159485	-171.28857	2135.9304	116.72834	-166.55937
